<svg width="142" height="164" viewBox="0 0 142 164" fill="none" xmlns="http://www.w3.org/2000/svg">
<g clip-path="url(#clip0)">
<g opacity="0.7">
<path d="M44 97.4998C44 97.4998 43.4567 108.246 39.4221 104.485C36.5643 102.033 34.0426 99.1718 32.0253 96.0653C32.0256 91.4998 25.408 84.5777 26.5007 79.9998C27.6109 71.2686 29.4197 72.4903 32.0253 71.9998C34.631 71.4275 36.9996 74.4997 36.9996 74.4997" stroke="black"/>
<path d="M44.5 97C44.5 97 50 115.5 52.5 115.5" stroke="black"/>
<path d="M42.1953 105.957C42.9518 109.717 42.9518 113.56 42.1953 117.32" stroke="black"/>
<path d="M42.7827 117C42.7827 117 40.2132 119.625 31.8414 122.775C31.8414 122.775 30.4323 122.775 31.2612 124.95C32.0901 127.2 45.1036 154.349 61.4329 159.299C77.7621 164.249 78.0936 161.549 82.7355 157.949C87.3773 154.349 91.1074 142.124 89.6983 136.799" stroke="black"/>
<path d="M63.957 126.536C63.957 126.536 78.8623 135.972 87.0155 137.198C95.0154 139.98 107.168 132.035 107.924 131.054C111.486 126.436 109.497 127.463 112.463 118.655C114.649 112.165 114.649 109.847 114.649 109.847C114.649 109.847 115.657 101.992 115.573 100.112C115.573 98.2319 117.889 88.793 117.133 85.2778C116.376 81.7626 111.707 71.6228 112.463 69.7426C113.304 67.8624 116.582 61.9766 115.573 60.4234C114.48 58.9519 108.008 45.7903 108.176 44.2371C108.26 42.3569 108.092 40.3949 107.84 38.5147C107.672 37.5337 108.429 35.5717 109.353 36.3892C109.353 36.3892 108.344 34.3455 107.84 34.5907C107.336 34.836 107.672 32.7923 108.765 32.7923C108.765 32.7923 107.672 28.8684 106.916 28.2961C107.588 28.2144 108.176 28.2961 108.765 28.6231C108.765 28.6231 106.579 24.2086 104.73 22.9007C102.965 21.6744 106.615 16.2073 103.001 14.0001C99.3028 11.7928 88.4799 0.522921 71.5011 6.00008C71.5011 6.00008 46.9854 14.1536 34.7136 29.5224C34.7136 29.5224 25.1315 32.8741 23.8707 33.4463V34.9179C23.8707 34.9179 21.7694 35.7353 21.0969 36.1441C21.4331 36.8798 21.6012 37.6972 21.6853 38.5147C20.9288 38.9235 20.1724 39.414 19.5 39.9862L19.8361 43.0109C19.1637 47.2618 24.0388 52.7491 23.8707 57C23.9548 61.1692 29.5 71.5 29.5 71.5C29.5 71.5 36.1681 71.7833 36 73.5" stroke="black"/>
<path d="M42.5309 113.479C42.5309 113.479 28.5781 117.484 22.19 122.144C15.802 126.804 5.12726 128.03 0 132.608" stroke="black"/>
<path d="M114 114C114 114 130.498 115.325 134 120" stroke="black"/>
</g>
<path d="M34 73.5C34 73.5 39.8235 77.2758 43 78.6419C46.1765 80.008 46.0449 80.1164 46.0449 80.1164H65.4655L68.6466 80.6407C68.6466 80.6407 69.6226 89.7534 76.505 88.9498L96.2649 85.3043C97.9413 83.0543 97.4821 78.7925 97.7468 76.0603C98.0116 71.8817 97.7468 70.9977 97.7468 70.9977H101.647C101.647 70.9977 103.815 83.3747 106.639 83.9372C109.462 84.4997 118.159 82.4085 119.483 80.6407C120.806 78.8728 121.765 71.8013 121.676 70.9977L122.447 70.7223L123 66.8995C123 66.8995 121.235 64.4085 115.235 65.1317L101.647 68.9887L95.4704 69.5514C95.4704 69.5514 82.4587 66.5844 69.6645 74.2184C69.6645 74.2184 31.7737 70.5344 26 69.5514L24 71.7609C25.5746 68.9887 26.2352 70.7678 34 73.5ZM49.1942 75.6929L65.9904 76.0603L67.6761 77.105V78.6419H65.4655H50.7689L49.1942 75.6929Z" fill="black"/>
<path d="M25.498 78.5L28.998 72.6625H36.498L42.3208 87.5L43.998 82.5L42.3208 72.6625L45.998 64.8L62.0966 61.1L68.6886 54.1625L79.989 49.5375L89.406 44.9125L90.8186 48.15L97.4105 39.3625L93.1729 49.5375L99.2939 43.0625L97.4105 50.925L102.119 46.7625L109.182 61.1L115.303 64.8L120.953 46.7625V35.6625L118.498 32.425L115.303 22.25L109.182 18L90.8186 5.5H76.498L55.498 2L42.3208 11.5L29.498 16.5L18.3074 24.1L15.9531 32.425L18.3074 37.5125L15.9531 40.75H19.7199L20.998 61.1L25.498 78.5Z" fill="black"/>
<path d="M42.998 113.5L34.498 100L39.498 104.5L43.998 102L44.998 98L45.998 103.5L42.998 113.5Z" fill="black"/>
<path d="M25.498 78.5L28.998 72.6625H36.498L42.3208 87.5L43.998 82.5L42.3208 72.6625L45.998 64.8L62.0966 61.1L68.6886 54.1625L79.989 49.5375L89.406 44.9125L90.8186 48.15L97.4105 39.3625L93.1729 49.5375L99.2939 43.0625L97.4105 50.925L102.119 46.7625L109.182 61.1L115.303 64.8L120.953 46.7625V35.6625L118.498 32.425L115.303 22.25L109.182 18L90.8186 5.5H76.498L55.498 2L42.3208 11.5L29.498 16.5L18.3074 24.1L15.9531 32.425L18.3074 37.5125L15.9531 40.75H19.7199L20.998 61.1L25.498 78.5Z" stroke="black"/>
<path d="M42.998 113.5L34.498 100L39.498 104.5L43.998 102L44.998 98L45.998 103.5L42.998 113.5Z" stroke="black"/>
<path d="M71 80.9412V76.2353L79.4706 73.8824L87.4706 72.4706L95 72V81.8824L94.0588 84.7059L81.8235 87.0588L74.2941 88L72.4118 85.1765L71 80.9412Z" fill="#E5E5E5"/>
<path d="M106.359 78.4286L104.953 70.2L118.547 67H119.953V72.4857L119.484 76.3714L118.547 79.8L113.859 81.6286L108.234 83L106.359 78.4286Z" fill="#E5E5E5"/>
<path d="M93.998 128L91.498 121H96.498L105.498 119.5V126.838L107.498 128L108.151 126.838L111.953 125.378L109.577 132.189L98.1709 137.541L88.666 139L74.8838 134.622L63.9531 126.838L71.998 128L78.498 132.189H84.3888H86.498L93.998 128Z" fill="black"/>
</g>
<defs>
<clipPath id="clip0">
<rect width="142" height="164" fill="white"/>
</clipPath>
</defs>
</svg>
