<svg width="142" height="164" viewBox="0 0 142 164" fill="none" xmlns="http://www.w3.org/2000/svg">
<path d="M66.8008 7.8C66.5008 7.6 66.1008 7.5 65.8008 7.5C65.8008 7.5 66.2008 7.6 66.8008 7.8Z" fill="url(#paint0_linear)"/>
<path d="M65.3016 5.2998C64.3016 4.9998 63.4016 4.7998 62.6016 4.7998C62.6016 4.7998 63.8016 4.9998 65.3016 5.2998Z" fill="url(#paint1_linear)"/>
<path d="M75.1988 5.70039C74.7988 5.50039 74.4988 5.40039 74.1988 5.40039C74.0988 5.40039 74.4988 5.60039 75.1988 5.70039Z" fill="url(#paint2_linear)"/>
<path d="M64.5 4.40039C64.2 4.40039 64 4.50039 64 4.50039C64.1 4.50039 64.3 4.40039 64.5 4.40039Z" fill="url(#paint3_linear)"/>
<path d="M45.5992 6.40039C45.3992 6.50039 45.1992 6.50039 45.1992 6.50039C45.3992 6.40039 45.4992 6.40039 45.5992 6.40039Z" fill="url(#paint4_linear)"/>
<path d="M38.3008 79C38.3008 79.2 38.4008 79.4 38.5008 79.5C38.4008 79.4 38.4008 79.3 38.3008 79Z" fill="url(#paint5_linear)"/>
<path d="M27.4985 73.3004C27.4985 73.3004 27.4985 72.3004 27.5985 70.9004C27.4985 71.6004 27.3985 72.4004 27.4985 73.3004Z" fill="url(#paint6_linear)"/>
<path d="M124.801 54.2002L124.901 54.8002L124.801 54.2002Z" fill="url(#paint7_linear)"/>
<path d="M87.3984 8.2002C87.3984 8.2002 87.4984 8.3002 87.6984 8.4002L87.3984 8.2002Z" fill="url(#paint8_linear)"/>
<path d="M111.301 5.0998L111.401 4.7998L111.301 5.0998Z" fill="url(#paint9_linear)"/>
<path d="M126.5 20.6C126.8 19.9 126.9 19.5 126.9 19.5C126.7 19.9 126.6 20.2 126.5 20.6Z" fill="url(#paint10_linear)"/>
<path d="M126.398 20.6997C126.498 20.6997 126.498 20.5997 126.398 20.6997C126.498 20.5997 126.498 20.6997 126.398 20.6997Z" fill="url(#paint11_linear)"/>
<path d="M98.6016 8.90039C98.6016 8.90039 99.7016 9.80039 101.002 10.8004C100.302 10.0004 99.5016 9.30039 98.6016 8.90039Z" fill="url(#paint12_linear)"/>
<path d="M100.898 7.59961C100.898 7.59961 100.998 7.69961 101.098 7.69961C100.998 7.69961 100.998 7.69961 100.898 7.59961Z" fill="url(#paint13_linear)"/>
<path d="M100.899 7.60039C100.699 7.50039 100.699 7.40039 100.699 7.40039C100.799 7.50039 100.799 7.60039 100.899 7.60039Z" fill="url(#paint14_linear)"/>
<path d="M106.302 11.4002L106.102 11.2002C106.102 11.3002 106.202 11.4002 106.302 11.4002Z" fill="url(#paint15_linear)"/>
<path d="M110.195 23.6074C110.195 23.6074 114.741 28.4179 116.285 32.316C117.829 36.2141 117.829 38.951 118.258 40.6099C118.686 42.2688 120.058 45.1715 120.315 45.3375C120.573 45.5863 121.259 47.6599 121.002 49.4013C121.002 49.4013 120.745 50.3138 120.401 51.6407" stroke="black" stroke-miterlimit="10"/>
<path d="M91.082 122.779C91.194 122.315 92.5108 120.098 92.5108 120.098C93.127 119.48 94.4718 115.562 95.088 113.5C95.7044 111.439 96.881 111.181 96.881 111.181" stroke="black" stroke-miterlimit="10"/>
<path d="M83.9912 53.8565C83.9912 53.8565 92.7153 51.7207 99.1544 50.7809C105.687 49.8492 109.364 52.3514 111.806 53.7537C113.443 54.5897 113.392 55.1819 114.343 55.1638C115.293 55.1458 115.344 54.5537 116.285 53.5407C121.485 48.2199 132.955 50.5942 134.259 51.9983C134.688 52.5321 134.209 53.6842 134.209 53.6842C134.209 53.6842 133.618 53.9318 133.293 54.4012C133.293 54.4012 132.686 71.4494 119.822 69.8503L115.226 57.0292C115.226 57.0292 114.169 56.1178 113.563 58.7504C113.137 60.4039 113.566 68.8648 106.864 71.7704C100.162 74.676 90.4585 71.4113 89.7677 66.1823C89.0771 60.9534 89.1616 59.9663 87.472 57.5349C85.774 55.2022 83.043 56.062 83.043 56.062L83.9912 53.8565Z" fill="black" stroke="black" stroke-miterlimit="10"/>
<path d="M118.548 55.3554C119.343 53.596 127.262 50.5277 131.212 53.3333C131.01 68.8501 122.435 68.2982 121.769 67.6016C120.879 66.7031 120.038 66.1741 118.922 64.1597L118.019 61.5237C117.399 59.3689 117.856 56.8496 118.548 55.3554Z" fill="white" stroke="black" stroke-miterlimit="10"/>
<path d="M91.7281 56.81C93.3108 49.7193 110.448 52.2614 111.916 55.6096C113.464 59.16 108.914 72.4412 100.291 71.8002C91.7651 71.1675 90.0956 64.4819 91.7281 56.81Z" fill="white" stroke="black" stroke-miterlimit="10"/>
<path d="M82.365 54.3535L64.9375 57.1957V59.0492L81.4999 56.3307L82.365 54.7243" fill="black"/>
<path d="M82.365 54.3535L64.9375 57.1957V59.0492L81.4999 56.3307L82.365 54.7243" stroke="black"/>
<path d="M17.4441 124.384C17.4441 124.384 9.76724 136.874 7 139.461" stroke="#76777E" stroke-miterlimit="10"/>
<path d="M108.676 111.091C108.676 111.091 120.548 119.032 122.869 139.997" stroke="#76777E" stroke-miterlimit="10"/>
<path d="M118.363 67.1104L120.804 71.6375L122.305 74.6002C122.305 74.6002 123.14 76.3205 122.89 77.5632C122.639 78.8056 120.97 81.0993 119.636 81.8639C119.636 81.8639 118.384 86.738 117.55 91.1344C116.716 95.5308 115.131 98.207 115.131 98.207C115.131 98.207 114.63 99.736 114.88 101.648C115.131 103.558 113.948 107.409 111.194 109.989C108.442 112.474 95.5805 111.695 85.4856 107.394L77.0703 102.965" stroke="black" stroke-miterlimit="10"/>
<path d="M33.7773 128.132L34.1344 129.381C34.0451 129.024 33.9559 128.578 33.7773 128.132Z" fill="url(#paint16_linear)"/>
<path d="M44.6719 136.429C46.2787 138.748 48.0639 140.711 48.0639 140.711C47.7067 139.819 46.0999 138.213 44.6719 136.429Z" fill="url(#paint17_linear)"/>
<path d="M94.9492 115.047L96.399 112.147L96.8822 111.181L99.7817 111.664L101.715 112.147L102.681 114.08L104.614 122.295L103.164 121.329L99.7817 117.463L94.9492 115.047Z" fill="black" stroke="black"/>
<path d="M121.616 33.9207C120.813 28.3002 116.706 24.1964 114.207 21.3414C114.207 21.2522 115.368 20.1816 115.368 20.0032C115.993 16.4347 105.102 11.8847 104.12 11.7063C104.12 11.7063 93.7653 2.33873 80.1967 2.51717C66.6282 2.6956 55.5592 2.51717 46.3648 9.83276C37.1703 17.1484 32.6178 22.9474 26.2798 43.5559C19.942 64.2539 18.5137 79.7772 16.9069 83.7025C15.3001 87.7174 13.1577 97.0846 13.3363 103.33L15.3894 99.8507C15.3894 99.8507 13.5148 109.664 14.8538 114.928C14.8538 114.928 14.9431 112.965 16.282 111.092C16.282 111.092 16.282 126.526 12.1758 132.146C12.1758 132.146 19.4956 129.559 23.3341 129.113L29.3696 130.872C29.3696 130.872 35.5291 128.578 35.7968 129.113C36.0645 129.559 40.7411 128.578 41.8122 132.057C41.9014 132.325 41.9907 132.593 42.0802 132.77C42.5263 133.752 43.5975 135.09 44.6688 136.34C43.5975 134.733 42.6156 132.86 42.5263 131.343C42.2586 127.507 45.7399 138.534 45.7399 138.534C45.7399 138.534 47.6967 143.566 47.7859 144.191C47.8753 144.815 47.8134 156.22 59.7751 163C59.7751 163 54.7968 162.042 54.7076 147.678C54.7076 147.678 63.4146 156.591 77.9651 157.75C77.9651 157.75 70.1095 151.506 69.3062 144.191C69.3062 144.191 74.2161 151.059 81.2679 150.257C81.2679 150.257 66.2023 112.631 67.8888 99.0997C65.3894 84.647 24.8071 48.5748 66.2023 61.0554C57.0972 53.727 67.5619 40.4192 83.259 40.4192C98.9562 40.4192 109.119 26.2482 111.797 23.3934C114.742 26.962 116.974 31.066 116.974 31.066C117.51 28.4787 116.796 26.159 116.796 26.159C118.581 26.8728 121.616 33.9207 121.616 33.9207Z" fill="black"/>
<path d="M105.821 126.525C105.999 125.544 106.178 111.537 106.178 111.537H100.043C100.043 111.537 104.125 122.332 105.821 126.525Z" fill="black"/>
<path d="M106.621 111.537C106.621 111.537 106.174 116.712 107.603 122.421C107.603 122.421 107.156 114.481 108.585 111.091L106.621 111.537Z" fill="black"/>
<path d="M116.505 32.1395C115.269 28.556 110.078 24.3546 110.078 24.3546L111.933 22.0068H115.393L119.225 27.0732L123.056 34.2402L124.91 47.215V50.0572L120.955 50.9222C120.955 50.9222 120.708 50.7098 121.326 49.5629C121.944 48.4159 121.326 48.5743 120.955 46.103C120.763 44.818 120.09 45.3615 119.225 43.2608C118.36 41.1601 118.36 38.5652 118.36 38.5652C118.36 38.5652 117.741 35.723 116.505 32.1395Z" fill="black" stroke="black"/>
<path d="M125.285 69.7051C125.285 69.7051 125.532 77.2429 127.06 83.4458C128.588 89.6488 129.33 87.8325 128.358 94.0913C127.386 100.351 128.217 99.7302 128.358 104.242C128.498 108.753 129.363 109.989 130.6 114.021C131.836 118.053 129.665 119.076 129.066 122.314L128.358 130.609L127.06 135.684L125.291 137.293V139.273L123.167 140.14L120.807 127.514C120.318 127.77 119.844 127.727 119.406 127.514H119.391C119.391 127.514 119.394 127.513 119.4 127.511C118.17 126.908 117.229 124.972 117.06 124.604C114.838 124.023 112.787 122.677 112.902 122.314C112.941 122.193 113.067 122.138 113.238 122.128C112.361 121.497 111.196 120.244 109.835 117.859C107.487 113.741 108.228 111.225 108.228 111.225C108.228 111.225 111.262 110.486 112.678 108.63C114.094 106.773 114.667 104.182 114.903 103.934C115.139 103.686 114.604 101.116 115.15 98.8672C115.663 96.7511 116.23 97.1435 116.757 95.037C117.622 91.577 118.981 85.3985 118.981 85.3985L119.846 82.0621C119.846 82.0621 121.561 80.5946 122.21 79.3485C122.768 78.2786 123.039 77.5841 123.06 76.3778C123.082 75.1889 121.824 73.2886 121.824 73.2886L120.218 70.2006C120.218 70.2006 121.517 70.2847 122.341 70.2006C123.523 70.0805 125.285 69.7051 125.285 69.7051Z" fill="black"/>
<path d="M120.807 127.514L123.167 140.14L125.291 139.273V137.293L127.06 135.684L128.358 130.609L129.066 122.314C129.665 119.076 131.836 118.053 130.6 114.021C129.363 109.989 128.498 108.753 128.358 104.242C128.217 99.7302 127.386 100.351 128.358 94.0913C129.33 87.8325 128.588 89.6488 127.06 83.4458C125.532 77.2429 125.285 69.7051 125.285 69.7051C125.285 69.7051 123.523 70.0805 122.341 70.2006C121.517 70.2847 120.218 70.2006 120.218 70.2006L121.824 73.2886C121.824 73.2886 123.082 75.1889 123.06 76.3778C123.039 77.5841 122.768 78.2786 122.21 79.3485C121.561 80.5946 119.846 82.0621 119.846 82.0621L118.981 85.3985C118.981 85.3985 117.622 91.577 116.757 95.037C116.23 97.1435 115.663 96.7511 115.15 98.8672C114.604 101.116 115.139 103.686 114.903 103.934C114.667 104.182 114.094 106.773 112.678 108.63C111.262 110.486 108.228 111.225 108.228 111.225C108.228 111.225 107.487 113.741 109.835 117.859C112.183 121.975 113.947 122.716 114.655 122.716C115.363 122.716 113.092 121.721 112.902 122.314C112.666 123.058 121.548 127.947 122.318 121.851C123.088 115.756 117.268 121.737 117.032 124.543C117.032 124.543 118.793 128.568 120.807 127.514ZM120.807 127.514H119.391C119.391 127.514 123.677 126.011 120.807 127.514Z" stroke="black"/>
<path d="M105.961 14.0559C105.796 11.4084 101.143 8.39565 99.9804 7.93919C98.7343 7.48275 97.7373 6.20464 96.6573 5.47429C93.2514 3.10068 89.5961 2.7355 85.7748 1.82258C82.7842 1.09223 78.7967 0.0880119 76.3044 2.64422C75.8061 3.19197 72.5663 2.64422 71.8185 2.64422C66.4187 2.7355 65.3386 8.30437 60.6866 10.2215C56.7821 11.8647 50.967 13.3255 48.2255 16.8859C46.5641 19.1682 46.8133 21.4505 46.481 24.098C46.1488 26.6543 41.746 38.2484 40.4168 41.1699C38.257 46.0996 38.9215 52.1251 39.0875 57.42C39.2537 62.6236 38.7554 67.9185 38.1737 73.1223C37.6753 77.5957 37.3431 82.1602 36.18 86.5424C35.5986 88.7334 34.8508 90.9245 33.6047 92.8416C32.3585 94.7586 30.2818 95.9457 29.285 97.9537C26.1281 104.436 26.2943 112.287 22.3898 118.495C21.6422 119.681 22.7222 122.329 21.2268 123.242C19.7315 124.155 16.1594 126.712 15.8271 128.08C15.4948 129.45 14.6641 133.467 14.6641 133.467C14.6641 133.467 15.9932 131.458 17.0732 128.811C18.1531 126.164 25.7128 122.511 31.2787 121.69C36.7615 120.959 49.3886 111.465 50.3025 111.192C51.2164 110.917 57.3637 98.1364 59.6899 96.128C62.0157 94.1198 62.1819 81.1561 62.1819 81.1561C62.1819 81.1561 62.0989 80.3346 61.9327 78.9651C59.3574 78.0522 55.1207 76.774 54.6223 75.1308C54.1239 73.3961 52.3792 72.757 51.2164 70.0184C50.0534 67.2797 48.3088 64.4494 49.0563 61.8021C49.8042 59.1545 50.4687 56.507 52.7117 56.0507C54.9545 55.5942 57.696 57.146 58.5268 58.2415C59.3574 59.3371 60.6866 61.4367 62.265 62.0759C62.431 61.9847 62.6805 62.0759 62.8466 62.1671C68.6771 65.3708 68.7542 54.0429 69.4187 52.0343C70.0832 50.0258 73.0295 42.6099 74.8571 40.4188C76.6846 38.2277 79.212 35.2358 79.1289 34.049C79.0458 32.8623 79.7106 27.7496 80.4581 27.1108C81.2059 26.4717 85.2762 25.65 87.6024 24.0068C89.9285 22.2722 96.8234 22.6374 99.3157 23.0938C101.808 23.5503 103.386 23.8242 103.719 23.6415C103.967 23.3677 106.127 23.6415 106.127 23.6415C106.127 23.6415 106.127 16.7033 105.961 14.0559Z" fill="black"/>
<path d="M74.4414 134.837C74.4414 134.837 81.1207 137.073 85.3043 136.193C91.4391 134.903 96.1671 129.411 97.5249 125.793C98.8829 122.177 93.9865 118.429 93.9865 118.429C93.0813 117.373 95.8955 116.736 94.8093 116.012C93.7229 115.288 95.7145 115.394 94.8093 114.942" stroke="black"/>
<path d="M109.289 112.229L106.121 111.776V112.681L109.289 118.107V112.229Z" fill="black" stroke="black"/>
<path d="M114.985 120.784L112.389 118.912L111.969 119.713L112.254 125.99L114.985 120.784Z" fill="black" stroke="black"/>
<path d="M121.986 125.883L113.358 120.846L112.938 121.647L119.255 131.088L121.986 125.883Z" fill="black" stroke="black"/>
<path d="M112.321 117.184L103.694 112.146L103.273 112.948L109.591 122.388L112.321 117.184Z" fill="black" stroke="black"/>
<defs>
<linearGradient id="paint0_linear" x1="65.9174" y1="7.7993" x2="66.5594" y2="7.5493" gradientUnits="userSpaceOnUse">
<stop stop-color="#4663FF"/>
<stop offset="1" stop-color="#17A8D3"/>
</linearGradient>
<linearGradient id="paint1_linear" x1="62.9687" y1="5.4318" x2="64.8057" y2="4.7178" gradientUnits="userSpaceOnUse">
<stop stop-color="#4663FF"/>
<stop offset="1" stop-color="#17A8D3"/>
</linearGradient>
<linearGradient id="paint2_linear" x1="74.2742" y1="5.71439" x2="74.9492" y2="5.45139" gradientUnits="userSpaceOnUse">
<stop stop-color="#4663FF"/>
<stop offset="1" stop-color="#17A8D3"/>
</linearGradient>
<linearGradient id="paint3_linear" x1="64.0123" y1="4.54159" x2="64.4123" y2="4.38659" gradientUnits="userSpaceOnUse">
<stop stop-color="#4663FF"/>
<stop offset="1" stop-color="#17A8D3"/>
</linearGradient>
<linearGradient id="paint4_linear" x1="45.2802" y1="6.49539" x2="45.5812" y2="6.37839" gradientUnits="userSpaceOnUse">
<stop stop-color="#4663FF"/>
<stop offset="1" stop-color="#17A8D3"/>
</linearGradient>
<linearGradient id="paint5_linear" x1="38.3433" y1="79.2738" x2="38.3723" y2="79.2618" gradientUnits="userSpaceOnUse">
<stop stop-color="#4663FF"/>
<stop offset="1" stop-color="#17A8D3"/>
</linearGradient>
<linearGradient id="paint6_linear" x1="27.1162" y1="72.2681" x2="27.9102" y2="71.9601" gradientUnits="userSpaceOnUse">
<stop stop-color="#4663FF"/>
<stop offset="1" stop-color="#17A8D3"/>
</linearGradient>
<linearGradient id="paint7_linear" x1="124.745" y1="54.542" x2="124.864" y2="54.495" gradientUnits="userSpaceOnUse">
<stop stop-color="#4663FF"/>
<stop offset="1" stop-color="#17A8D3"/>
</linearGradient>
<linearGradient id="paint8_linear" x1="87.4851" y1="8.3244" x2="87.6261" y2="8.2704" gradientUnits="userSpaceOnUse">
<stop stop-color="#4663FF"/>
<stop offset="1" stop-color="#17A8D3"/>
</linearGradient>
<linearGradient id="paint9_linear" x1="111.278" y1="4.9782" x2="111.411" y2="4.92621" gradientUnits="userSpaceOnUse">
<stop stop-color="#4663FF"/>
<stop offset="1" stop-color="#17A8D3"/>
</linearGradient>
<linearGradient id="paint10_linear" x1="126.349" y1="20.187" x2="126.944" y2="19.955" gradientUnits="userSpaceOnUse">
<stop stop-color="#4663FF"/>
<stop offset="1" stop-color="#17A8D3"/>
</linearGradient>
<linearGradient id="paint11_linear" x1="126.436" y1="20.6795" x2="126.492" y2="20.6575" gradientUnits="userSpaceOnUse">
<stop stop-color="#4663FF"/>
<stop offset="1" stop-color="#17A8D3"/>
</linearGradient>
<linearGradient id="paint12_linear" x1="99.1523" y1="10.1027" x2="100.413" y2="9.61269" gradientUnits="userSpaceOnUse">
<stop stop-color="#4663FF"/>
<stop offset="1" stop-color="#17A8D3"/>
</linearGradient>
<linearGradient id="paint13_linear" x1="100.938" y1="7.67351" x2="101.022" y2="7.64051" gradientUnits="userSpaceOnUse">
<stop stop-color="#4663FF"/>
<stop offset="1" stop-color="#17A8D3"/>
</linearGradient>
<linearGradient id="paint14_linear" x1="100.719" y1="7.53159" x2="100.843" y2="7.48359" gradientUnits="userSpaceOnUse">
<stop stop-color="#4663FF"/>
<stop offset="1" stop-color="#17A8D3"/>
</linearGradient>
<linearGradient id="paint15_linear" x1="106.102" y1="11.3391" x2="106.215" y2="11.2951" gradientUnits="userSpaceOnUse">
<stop stop-color="#4663FF"/>
<stop offset="1" stop-color="#17A8D3"/>
</linearGradient>
<linearGradient id="paint16_linear" x1="33.7818" y1="128.756" x2="34.1177" y2="128.756" gradientUnits="userSpaceOnUse">
<stop stop-color="#EF3F7C"/>
<stop offset="0.9768" stop-color="#FF029A"/>
<stop offset="1" stop-color="#FF009B"/>
</linearGradient>
<linearGradient id="paint17_linear" x1="44.6311" y1="138.57" x2="48.0464" y2="138.57" gradientUnits="userSpaceOnUse">
<stop stop-color="#EF3F7C"/>
<stop offset="0.9768" stop-color="#FF029A"/>
<stop offset="1" stop-color="#FF009B"/>
</linearGradient>
</defs>
</svg>
