<svg width="143" height="118" viewBox="0 0 143 118" fill="none" xmlns="http://www.w3.org/2000/svg">
<path d="M77 23.5295C77 16.0574 70.9558 10 63.5 10C56.0442 10 50 16.0574 50 23.5295V61.4705C50 68.9426 56.0442 75 63.5 75C70.9558 75 77 68.9426 77 61.4705V23.5295Z" fill="#D6274D"/>
<path d="M36.5 36H36.5C31.2533 36 27 40.0312 27 45.0039V88.9961C27 93.9688 31.2533 98 36.5 98H36.5C41.7467 98 46 93.9688 46 88.9961V45.0039C46 40.0312 41.7467 36 36.5 36Z" fill="#052FD3"/>
<path d="M107 44H107C102.029 44 98 48.0577 98 53.0631V97.9369C98 102.942 102.029 107 107 107H107C111.971 107 116 102.942 116 97.9369V53.0631C116 48.0577 111.971 44 107 44Z" fill="#E83E03"/>
<path d="M87.5 58H87.5C84.4624 58 82 60.6227 82 63.858V82.142C82 85.3773 84.4624 88 87.5 88H87.5C90.5376 88 93 85.3773 93 82.142V63.858C93 60.6227 90.5376 58 87.5 58Z" fill="#FCDC3D"/>
</svg>
