<svg width="483" height="118" viewBox="0 0 483 118" fill="none" xmlns="http://www.w3.org/2000/svg">
<path d="M147.039 31.0918H152.064L164.914 50.6648H164.996V31.0918H170.392V59.9362H165.367L152.517 40.4044H152.434V59.9362H147.039V31.0918ZM175.139 55.486V51.3653H180.658V53.7965L182.017 55.1563H190.542L191.942 53.7553V48.9754L190.583 47.6155H179.669L175.221 43.1653V35.5421L179.669 31.0918H192.684L197.132 35.5421V39.7039H191.613V37.2315L190.254 35.8717H182.099L180.74 37.2315V41.4758L182.099 42.8356H193.013L197.461 47.2859V55.4035L192.931 59.9362H179.587L175.139 55.486ZM201.98 54.9915V31.0918H207.582V53.0548L209.682 55.1563H217.755L219.855 53.0548V31.0918H225.456V54.9915L220.514 59.9362H206.923L201.98 54.9915ZM242.041 31.0918H247.643V43.1653H259.834V31.0918H265.435V59.9362H259.834V47.9452H247.643V59.9362H242.041V31.0918ZM278.871 31.0918H283.978L294.522 59.9362H288.838L286.49 53.5493H276.359L274.011 59.9362H268.327L278.871 31.0918ZM285.255 48.9341L281.424 37.9733H281.342L277.635 48.9341H285.255ZM305.498 31.0918H310.605L321.148 59.9362H315.465L313.117 53.5493H302.985L300.638 59.9362H294.954L305.498 31.0918ZM311.882 48.9341L308.051 37.9733H307.969L304.262 48.9341H311.882ZM326.899 35.8305H318.292V31.0918H341.109V35.8305H332.501V59.9362H326.899V35.8305ZM344.402 31.0918H362.482L366.601 35.2124V43.2889L364.953 44.9783L367.878 47.9452V55.486L363.43 59.9362H344.402V31.0918ZM359.599 43.1653L361.082 41.6818V37.2315L359.641 35.7893H349.879V43.1653H359.599ZM360.588 55.2387L362.359 53.4668V49.4286L360.588 47.6567H349.879V55.2387H360.588ZM380.067 31.0918H385.174L395.718 59.9362H390.034L387.686 53.5493H377.555L375.207 59.9362H369.523L380.067 31.0918ZM386.451 48.9341L382.62 37.9733H382.538L378.831 48.9341H386.451ZM397.384 55.486L412.17 35.8717V35.7893H397.796V31.0918H418.883V35.5421L404.097 55.1563V55.2387H418.883V59.9362H397.384V55.486ZM431.066 31.0918H436.174L446.717 59.9362H441.033L438.686 53.5493H428.554L426.207 59.9362H420.523L431.066 31.0918ZM437.45 48.9341L433.62 37.9733H433.538L429.831 48.9341H437.45ZM472.271 50.3764V59.9362H466.67V51.6538L464.199 48.8929H455.22V59.9362H449.619V31.0918H467.7L472.106 35.5421V44.2778L469.306 47.1211L472.271 50.3764ZM455.22 44.2778H465.146L466.588 42.8356V37.2315L465.146 35.7893H455.22V44.2778Z" fill="#272727"/>
<path d="M157.174 78.7188H152.468V91.777H150.547V78.7188H145.852V77.1294H157.174V78.7188ZM160.914 82.2098C161.739 81.197 162.811 80.6908 164.132 80.6908C166.431 80.6908 167.591 81.9884 167.611 84.584V91.777H165.751V84.5739C165.744 83.7893 165.563 83.209 165.208 82.8335C164.859 82.4579 164.313 82.2701 163.569 82.2701C162.965 82.2701 162.436 82.4312 161.98 82.7529C161.524 83.0749 161.169 83.4975 160.914 84.0206V91.777H159.054V76.3246H160.914V82.2098ZM174.911 91.9781C173.436 91.9781 172.236 91.4952 171.311 90.5295C170.386 89.557 169.924 88.2592 169.924 86.6363V86.2943C169.924 85.2145 170.128 84.2519 170.537 83.4068C170.953 82.5552 171.529 81.8912 172.266 81.415C173.011 80.9322 173.815 80.6908 174.68 80.6908C176.094 80.6908 177.194 81.1568 177.978 82.089C178.762 83.0213 179.154 84.3559 179.154 86.0929V86.8676H171.784C171.811 87.9406 172.122 88.8092 172.719 89.4731C173.322 90.1304 174.086 90.4591 175.011 90.4591C175.669 90.4591 176.225 90.325 176.681 90.0566C177.136 89.7884 177.535 89.4329 177.877 88.9903L179.013 89.8757C178.102 91.2772 176.734 91.9781 174.911 91.9781ZM174.68 82.2199C173.929 82.2199 173.299 82.4948 172.789 83.0448C172.28 83.5879 171.965 84.3525 171.844 85.3385H177.294V85.1976C177.24 84.2519 176.986 83.5209 176.53 83.0045C176.074 82.4814 175.457 82.2199 174.68 82.2199ZM188.446 91.777H186.585V76.3246H188.446V91.777ZM195.946 91.9781C194.472 91.9781 193.272 91.4952 192.347 90.5295C191.421 89.557 190.958 88.2592 190.958 86.6363V86.2943C190.958 85.2145 191.164 84.2519 191.572 83.4068C191.988 82.5552 192.565 81.8912 193.302 81.415C194.045 80.9322 194.85 80.6908 195.715 80.6908C197.129 80.6908 198.23 81.1568 199.014 82.089C199.798 83.0213 200.19 84.3559 200.19 86.0929V86.8676H192.819C192.845 87.9406 193.158 88.8092 193.755 89.4731C194.358 90.1304 195.122 90.4591 196.047 90.4591C196.704 90.4591 197.26 90.325 197.717 90.0566C198.172 89.7884 198.57 89.4329 198.913 88.9903L200.049 89.8757C199.138 91.2772 197.769 91.9781 195.946 91.9781ZM195.715 82.2199C194.965 82.2199 194.334 82.4948 193.825 83.0448C193.315 83.5879 193.001 84.3525 192.879 85.3385H198.329V85.1976C198.276 84.2519 198.022 83.5209 197.565 83.0045C197.11 82.4814 196.492 82.2199 195.715 82.2199ZM201.91 86.2439C201.91 84.5471 202.301 83.1989 203.086 82.1997C203.87 81.1937 204.909 80.6908 206.203 80.6908C207.53 80.6908 208.565 81.1601 209.31 82.0991L209.4 80.8919H211.1V91.5155C211.1 92.9238 210.681 94.0337 209.842 94.8453C209.011 95.6569 207.891 96.0626 206.484 96.0626C205.699 96.0626 204.932 95.895 204.181 95.5595C203.43 95.2242 202.857 94.7648 202.462 94.1813L203.428 93.0646C204.226 94.0506 205.201 94.5436 206.354 94.5436C207.259 94.5436 207.963 94.2887 208.464 93.7788C208.975 93.2692 209.23 92.5516 209.23 91.626V90.6904C208.485 91.549 207.47 91.9781 206.182 91.9781C204.909 91.9781 203.876 91.4651 203.086 90.4389C202.301 89.4128 201.91 88.0144 201.91 86.2439ZM203.78 86.4551C203.78 87.6825 204.031 88.6483 204.533 89.3525C205.036 90.05 205.74 90.3988 206.645 90.3988C207.818 90.3988 208.68 89.8655 209.23 88.7992V83.8294C208.659 82.7898 207.805 82.2701 206.665 82.2701C205.761 82.2701 205.053 82.6222 204.544 83.3265C204.035 84.0307 203.78 85.0736 203.78 86.4551ZM220.631 91.777C220.524 91.5623 220.438 91.18 220.371 90.6301C219.506 91.5288 218.472 91.9781 217.274 91.9781C216.202 91.9781 215.32 91.6764 214.629 91.0727C213.946 90.4625 213.603 89.6912 213.603 88.759C213.603 87.6254 214.032 86.747 214.891 86.1231C215.756 85.4928 216.969 85.1776 218.531 85.1776H220.341V84.3223C220.341 83.6718 220.146 83.1555 219.757 82.7732C219.369 82.3841 218.794 82.1895 218.038 82.1895C217.374 82.1895 216.818 82.3574 216.368 82.6926C215.919 83.0279 215.694 83.4338 215.694 83.9099H213.824C213.824 83.3667 214.015 82.8436 214.397 82.3405C214.786 81.8309 215.309 81.4283 215.966 81.1333C216.63 80.8382 217.357 80.6908 218.149 80.6908C219.401 80.6908 220.384 81.0058 221.095 81.6362C221.805 82.26 222.174 83.1219 222.2 84.2218V89.2317C222.2 90.231 222.327 91.0259 222.582 91.6161V91.777H220.631ZM217.546 90.3585C218.128 90.3585 218.68 90.2075 219.204 89.9058C219.727 89.6039 220.105 89.2117 220.341 88.7288V86.4954H218.882C216.602 86.4954 215.464 87.1628 215.464 88.4973C215.464 89.0807 215.659 89.5368 216.046 89.8655C216.436 90.1941 216.935 90.3585 217.546 90.3585ZM229.48 90.4591C230.145 90.4591 230.723 90.2579 231.22 89.8554C231.716 89.4531 231.991 88.95 232.045 88.3465H233.805C233.771 88.9702 233.556 89.5638 233.161 90.127C232.766 90.6904 232.236 91.1398 231.572 91.4752C230.914 91.8105 230.218 91.9781 229.48 91.9781C228 91.9781 226.82 91.4851 225.94 90.4994C225.07 89.5067 224.634 88.1519 224.634 86.4349V86.1231C224.634 85.0635 224.828 84.1212 225.218 83.2963C225.605 82.4712 226.163 81.8309 226.886 81.3748C227.618 80.9187 228.479 80.6908 229.471 80.6908C230.69 80.6908 231.703 81.0562 232.508 81.7872C233.318 82.5183 233.751 83.4673 233.805 84.6342H232.045C231.991 83.9299 231.723 83.3532 231.24 82.9039C230.765 82.4478 230.175 82.2199 229.471 82.2199C228.526 82.2199 227.792 82.5619 227.268 83.2459C226.753 83.9234 226.494 84.9058 226.494 86.1935V86.5456C226.494 87.7998 226.753 88.7657 227.268 89.443C227.784 90.1205 228.522 90.4591 229.48 90.4591ZM239.455 89.0506L241.99 80.8919H243.98L239.607 93.457C238.929 95.2679 237.852 96.1733 236.379 96.1733L236.027 96.1431L235.333 96.0122V94.5033L235.836 94.5436C236.465 94.5436 236.956 94.416 237.304 94.1611C237.66 93.9064 237.95 93.4402 238.178 92.7629L238.59 91.6561L234.709 80.8919H236.74L239.455 89.0506ZM250.264 86.2338C250.264 85.1674 250.472 84.2083 250.888 83.3566C251.311 82.5048 251.893 81.8475 252.638 81.3849C253.389 80.9221 254.243 80.6908 255.201 80.6908C256.684 80.6908 257.88 81.2038 258.792 82.2298C259.709 83.256 260.17 84.6209 260.17 86.3244V86.4551C260.17 87.5147 259.964 88.4671 259.556 89.3122C259.153 90.1506 258.573 90.8045 257.816 91.2739C257.066 91.7434 256.201 91.9781 255.222 91.9781C253.746 91.9781 252.55 91.4651 251.633 90.4389C250.721 89.4128 250.264 88.0547 250.264 86.3647V86.2338ZM252.135 86.4551C252.135 87.6623 252.414 88.6314 252.97 89.3624C253.533 90.0935 254.284 90.4591 255.222 90.4591C256.167 90.4591 256.918 90.0901 257.474 89.3525C258.03 88.608 258.309 87.5685 258.309 86.2338C258.309 85.0401 258.024 84.0742 257.453 83.3366C256.892 82.592 256.141 82.2199 255.201 82.2199C254.284 82.2199 253.542 82.5853 252.979 83.3163C252.417 84.0474 252.135 85.0936 252.135 86.4551ZM263.416 91.777V82.3304H261.697V80.8919H263.416V79.7752C263.416 78.6081 263.728 77.7061 264.352 77.0691C264.975 76.4319 265.857 76.1133 266.997 76.1133C267.426 76.1133 267.851 76.1702 268.274 76.2843L268.173 77.7934C267.858 77.7331 267.523 77.7027 267.168 77.7027C266.565 77.7027 266.099 77.8805 265.769 78.236C265.441 78.5847 265.277 79.0878 265.277 79.7451V80.8919H267.6V82.3304H265.277V91.777H263.416ZM286.312 91.777H284.372L277.002 80.4894V91.777H275.06V77.1294H277.002L284.393 88.4671V77.1294H286.312V91.777ZM294.055 85.248C292.4 84.7717 291.192 84.1882 290.436 83.4975C289.685 82.8 289.309 81.9416 289.309 80.9221C289.309 79.7685 289.767 78.816 290.687 78.065C291.611 77.3071 292.811 76.9282 294.287 76.9282C295.292 76.9282 296.187 77.1227 296.971 77.5117C297.761 77.9007 298.372 78.4371 298.8 79.1213C299.236 79.8054 299.454 80.5531 299.454 81.3647H297.514C297.514 80.4795 297.231 79.7853 296.67 79.2822C296.106 78.7726 295.313 78.5177 294.287 78.5177C293.334 78.5177 292.591 78.729 292.053 79.1515C291.523 79.5673 291.259 80.1474 291.259 80.8919C291.259 81.4888 291.51 81.9951 292.014 82.4109C292.523 82.82 293.384 83.1957 294.597 83.5377C295.818 83.8797 296.769 84.2587 297.454 84.6745C298.143 85.0835 298.654 85.5632 298.982 86.1131C299.317 86.6631 299.485 87.3102 299.485 88.0547C299.485 89.2418 299.023 90.1941 298.096 90.9118C297.172 91.6226 295.936 91.9781 294.386 91.9781C293.381 91.9781 292.443 91.7871 291.572 91.4048C290.7 91.0158 290.026 90.4859 289.55 89.8151C289.08 89.1446 288.846 88.3834 288.846 87.5316H290.788C290.788 88.4169 291.112 89.1176 291.763 89.6342C292.42 90.1439 293.294 90.3988 294.386 90.3988C295.406 90.3988 296.187 90.1909 296.73 89.7751C297.273 89.3591 297.544 88.7925 297.544 88.0747C297.544 87.3572 297.293 86.8039 296.79 86.4149C296.288 86.0191 295.376 85.6303 294.055 85.248ZM312.276 77.1294V87.089C312.268 88.4705 311.832 89.6007 310.967 90.4791C310.11 91.3578 308.943 91.8507 307.468 91.9581L306.955 91.9781C305.354 91.9781 304.076 91.5456 303.125 90.6805C302.172 89.8152 301.691 88.6249 301.678 87.109V77.1294H303.587V87.0487C303.587 88.1083 303.879 88.9333 304.461 89.5235C305.046 90.107 305.877 90.3988 306.955 90.3988C308.048 90.3988 308.883 90.107 309.46 89.5235C310.042 88.9401 310.334 88.1184 310.334 87.0588V77.1294H312.276ZM328.705 85.0066H322.361V90.1974H329.731V91.777H320.43V77.1294H329.63V78.7188H322.361V83.427H328.705V85.0066ZM333.602 80.8919L333.662 82.26C334.494 81.2139 335.579 80.6908 336.92 80.6908C339.219 80.6908 340.379 81.9884 340.4 84.584V91.777H338.539V84.5739C338.532 83.7893 338.352 83.209 337.996 82.8335C337.648 82.4579 337.101 82.2701 336.356 82.2701C335.753 82.2701 335.224 82.4312 334.769 82.7529C334.312 83.0749 333.958 83.4975 333.702 84.0206V91.777H331.843V80.8919H333.602ZM345.728 78.256V80.8919H347.759V82.3304H345.728V89.0807C345.728 89.5168 345.82 89.8455 345.999 90.0667C346.181 90.2813 346.49 90.3887 346.924 90.3887C347.14 90.3887 347.435 90.3484 347.81 90.2679V91.777C347.321 91.9111 346.844 91.9781 346.381 91.9781C345.55 91.9781 344.925 91.7266 344.502 91.2237C344.079 90.7206 343.869 90.0064 343.869 89.0807V82.3304H341.888V80.8919H343.869V78.256H345.728ZM355.201 82.5619C354.918 82.5149 354.615 82.4915 354.285 82.4915C353.065 82.4915 352.237 83.0112 351.801 84.0508V91.777H349.942V80.8919H351.752L351.782 82.1495C352.393 81.177 353.256 80.6908 354.375 80.6908C354.738 80.6908 355.014 80.7376 355.201 80.8314V82.5619ZM361.233 91.9781C359.759 91.9781 358.559 91.4952 357.635 90.5295C356.71 89.557 356.245 88.2592 356.245 86.6363V86.2943C356.245 85.2145 356.451 84.2519 356.859 83.4068C357.275 82.5552 357.852 81.8912 358.589 81.415C359.333 80.9322 360.138 80.6908 361.002 80.6908C362.416 80.6908 363.517 81.1568 364.301 82.089C365.085 83.0213 365.477 84.3559 365.477 86.0929V86.8676H358.106C358.132 87.9406 358.445 88.8092 359.042 89.4731C359.645 90.1304 360.409 90.4591 361.334 90.4591C361.991 90.4591 362.547 90.325 363.004 90.0566C363.459 89.7884 363.857 89.4329 364.2 88.9903L365.336 89.8757C364.425 91.2772 363.056 91.9781 361.233 91.9781ZM361.002 82.2199C360.252 82.2199 359.621 82.4948 359.112 83.0448C358.602 83.5879 358.288 84.3525 358.166 85.3385H363.616V85.1976C363.563 84.2519 363.309 83.5209 362.852 83.0045C362.397 82.4814 361.779 82.2199 361.002 82.2199ZM376.829 86.4551C376.829 88.1116 376.451 89.4464 375.693 90.4591C374.936 91.4718 373.91 91.9781 372.617 91.9781C371.295 91.9781 370.256 91.5589 369.5 90.7206V95.962H367.639V80.8919H369.339L369.429 82.0991C370.187 81.1601 371.239 80.6908 372.585 80.6908C373.894 80.6908 374.925 81.1835 375.683 82.1695C376.447 83.1555 376.829 84.5269 376.829 86.2841V86.4551ZM374.968 86.2439C374.968 85.0165 374.708 84.0474 374.184 83.3366C373.662 82.6256 372.945 82.2701 372.033 82.2701C370.906 82.2701 370.061 82.7698 369.5 83.7691V88.9702C370.056 89.9627 370.906 90.4591 372.053 90.4591C372.945 90.4591 373.652 90.107 374.174 89.4027C374.704 88.6919 374.968 87.6389 374.968 86.2439ZM384.462 82.5619C384.179 82.5149 383.874 82.4915 383.546 82.4915C382.326 82.4915 381.498 83.0112 381.062 84.0508V91.777H379.203V80.8919H381.011L381.043 82.1495C381.652 81.177 382.517 80.6908 383.636 80.6908C383.999 80.6908 384.273 80.7376 384.462 80.8314V82.5619ZM390.493 91.9781C389.02 91.9781 387.82 91.4952 386.895 90.5295C385.969 89.557 385.506 88.2592 385.506 86.6363V86.2943C385.506 85.2145 385.712 84.2519 386.12 83.4068C386.536 82.5552 387.112 81.8912 387.85 81.415C388.593 80.9322 389.398 80.6908 390.263 80.6908C391.677 80.6908 392.777 81.1568 393.562 82.089C394.346 83.0213 394.738 84.3559 394.738 86.0929V86.8676H387.367C387.393 87.9406 387.706 88.8092 388.301 89.4731C388.906 90.1304 389.67 90.4591 390.595 90.4591C391.252 90.4591 391.808 90.325 392.264 90.0566C392.719 89.7884 393.118 89.4329 393.461 88.9903L394.597 89.8757C393.685 91.2772 392.317 91.9781 390.493 91.9781ZM390.263 82.2199C389.513 82.2199 388.882 82.4948 388.372 83.0448C387.863 83.5879 387.549 84.3525 387.427 85.3385H392.877V85.1976C392.824 84.2519 392.57 83.5209 392.113 83.0045C391.658 82.4814 391.04 82.2199 390.263 82.2199ZM398.66 80.8919L398.719 82.26C399.551 81.2139 400.636 80.6908 401.977 80.6908C404.276 80.6908 405.437 81.9884 405.457 84.584V91.777H403.596V84.5739C403.589 83.7893 403.409 83.209 403.053 82.8335C402.705 82.4579 402.159 82.2701 401.413 82.2701C400.811 82.2701 400.281 82.4312 399.826 82.7529C399.369 83.0749 399.013 83.4975 398.759 84.0206V91.777H396.9V80.8919H398.66ZM412.777 91.9781C411.302 91.9781 410.102 91.4952 409.177 90.5295C408.252 89.557 407.79 88.2592 407.79 86.6363V86.2943C407.79 85.2145 407.994 84.2519 408.402 83.4068C408.818 82.5552 409.394 81.8912 410.132 81.415C410.877 80.9322 411.68 80.6908 412.545 80.6908C413.96 80.6908 415.059 81.1568 415.844 82.089C416.628 83.0213 417.019 84.3559 417.019 86.0929V86.8676H409.649C409.677 87.9406 409.988 88.8092 410.585 89.4731C411.188 90.1304 411.951 90.4591 412.876 90.4591C413.533 90.4591 414.091 90.325 414.546 90.0566C415.003 89.7884 415.402 89.4329 415.742 88.9903L416.879 89.8757C415.967 91.2772 414.6 91.9781 412.777 91.9781ZM412.545 82.2199C411.794 82.2199 411.165 82.4948 410.654 83.0448C410.145 83.5879 409.83 84.3525 409.711 85.3385H415.16V85.1976C415.106 84.2519 414.851 83.5209 414.395 83.0045C413.94 82.4814 413.324 82.2199 412.545 82.2199ZM425.898 90.7005C425.174 91.5522 424.113 91.9781 422.71 91.9781C421.552 91.9781 420.666 91.6428 420.056 90.9721C419.453 90.2948 419.148 89.2954 419.142 87.9742V80.8919H421.001V87.924C421.001 89.5737 421.671 90.3988 423.012 90.3988C424.435 90.3988 425.378 89.8689 425.848 88.8092V80.8919H427.709V91.777H425.938L425.898 90.7005ZM435.804 82.5619C435.521 82.5149 435.216 82.4915 434.888 82.4915C433.668 82.4915 432.84 83.0112 432.404 84.0508V91.777H430.543V80.8919H432.353L432.383 82.1495C432.994 81.177 433.859 80.6908 434.978 80.6908C435.339 80.6908 435.615 80.7376 435.804 80.8314V82.5619ZM443.858 88.8897C443.858 88.3866 443.667 87.9978 443.285 87.7226C442.908 87.4411 442.248 87.1997 441.304 86.9983C440.364 86.7972 439.617 86.5557 439.061 86.274C438.511 85.9923 438.103 85.6571 437.833 85.268C437.573 84.879 437.442 84.4162 437.442 83.8797C437.442 82.9878 437.818 82.2332 438.569 81.6162C439.325 80.9992 440.291 80.6908 441.463 80.6908C442.697 80.6908 443.696 81.0092 444.46 81.6464C445.232 82.2836 445.617 83.0983 445.617 84.091H443.747C443.747 83.5812 443.528 83.142 443.094 82.7732C442.663 82.4042 442.12 82.2199 441.463 82.2199C440.787 82.2199 440.257 82.3673 439.876 82.6625C439.494 82.9575 439.303 83.3431 439.303 83.8194C439.303 84.2688 439.481 84.6074 439.834 84.8354C440.19 85.0635 440.83 85.2815 441.755 85.4894C442.687 85.6973 443.442 85.9455 444.018 86.2338C444.595 86.5222 445.02 86.871 445.295 87.28C445.576 87.6825 445.716 88.1753 445.716 88.759C445.716 89.7314 445.329 90.5127 444.55 91.1028C443.773 91.6865 442.764 91.9781 441.525 91.9781C440.652 91.9781 439.881 91.824 439.211 91.5155C438.541 91.2068 438.015 90.7777 437.633 90.2278C437.258 89.6711 437.069 89.0708 437.069 88.4269H438.93C438.964 89.0506 439.211 89.5469 439.673 89.9157C440.143 90.278 440.759 90.4591 441.525 90.4591C442.229 90.4591 442.79 90.3182 443.214 90.0365C443.642 89.7481 443.858 89.3658 443.858 88.8897ZM450.002 82.2098C450.825 81.197 451.898 80.6908 453.218 80.6908C455.517 80.6908 456.678 81.9884 456.698 84.584V91.777H454.837V84.5739C454.83 83.7893 454.65 83.209 454.294 82.8335C453.946 82.4579 453.4 82.2701 452.654 82.2701C452.052 82.2701 451.522 82.4312 451.067 82.7529C450.61 83.0749 450.256 83.4975 450.002 84.0206V91.777H448.141V76.3246H450.002V82.2098ZM461.504 91.777H459.643V80.8919H461.504V91.777ZM459.493 78.0047C459.493 77.7027 459.583 77.448 459.765 77.2401C459.952 77.0322 460.227 76.9282 460.588 76.9282C460.952 76.9282 461.225 77.0322 461.414 77.2401C461.601 77.448 461.695 77.7027 461.695 78.0047C461.695 78.3064 461.601 78.5579 461.414 78.7591C461.225 78.9603 460.952 79.0608 460.588 79.0608C460.227 79.0608 459.952 78.9603 459.765 78.7591C459.583 78.5579 459.493 78.3064 459.493 78.0047ZM473.68 86.4551C473.68 88.1116 473.302 89.4464 472.545 90.4591C471.787 91.4718 470.761 91.9781 469.468 91.9781C468.148 91.9781 467.109 91.5589 466.351 90.7206V95.962H464.49V80.8919H466.19L466.28 82.0991C467.038 81.1601 468.09 80.6908 469.438 80.6908C470.744 80.6908 471.778 81.1835 472.534 82.1695C473.298 83.1555 473.68 84.5269 473.68 86.2841V86.4551ZM471.821 86.2439C471.821 85.0165 471.559 84.0474 471.037 83.3366C470.514 82.6256 469.795 82.2701 468.884 82.2701C467.759 82.2701 466.914 82.7698 466.351 83.7691V88.9702C466.907 89.9627 467.759 90.4591 468.904 90.4591C469.795 90.4591 470.503 90.107 471.025 89.4027C471.555 88.6919 471.821 87.6389 471.821 86.2439Z" fill="#272727"/>
<path d="M110.96 2H33.0405C23.077 2 15 10.0062 15 19.8823V97.1177C15 106.994 23.077 115 33.0405 115H110.96C120.923 115 129 106.994 129 97.1177V19.8823C129 10.0062 120.923 2 110.96 2Z" fill="#272727"/>
<rect x="62.8203" y="38.375" width="18.1362" height="64.6263" rx="9.06812" fill="#D6274D"/>
<rect x="85.6367" y="13" width="18.1362" height="64.6263" rx="9.06812" fill="#E83E03"/>
<rect x="40" y="24.9199" width="18.1362" height="64.6263" rx="9.06812" fill="#052FD3"/>
</svg>
