<svg width="142" height="164" viewBox="0 0 142 164" fill="none" xmlns="http://www.w3.org/2000/svg">
<g clip-path="url(#clip0)">
<path d="M45.8993 127.2L48.2493 115.55C50.6493 112.05 50.5993 103.9 50.5993 103.9L45.8993 127.2ZM45.8993 127.2L40.1993 140.2C43.9993 155.2 64.9993 172.2 64.9993 172.2M45.8993 127.2C45.8993 127.2 43.1993 125.7 39.2993 128.4C35.3993 131.1 35.6993 131.7 33.4993 133.4C31.2993 135.1 23.2993 140 16.3993 141.4C-3.30066 145.4 -12.5 155.414 -13.5 163.114L64.9993 172.2M82.4994 176.2C88.6994 171 100.999 144.514 100.999 144.514L91.5141 163.114L82.4994 176.2ZM82.4994 176.2L64.9993 172.2M109.5 132.5C109.5 132.5 120 140.2 134 146.5M113.999 40.5C118.799 44 117.699 56.8 117.899 59.6C118.099 62.4 116.9 62.9 119 66.5C119 72.5 119 78 119 82C119 84.6 119 87.1 119 94.5C119 101.8 115.699 117.6 113.999 121C112.299 124.3 107.6 134 106.5 138.5C105.4 143 101.399 144.5 96.8994 145.2C92.3994 146 88.8993 144.7 87.0993 143.7C85.2994 142.7 82.5 137.1 71.5 131.3C60.5 125.4 54.8993 117.7 53.6993 115.2L50.4993 102.7C50.4993 102.7 48.2993 104.7 45.6993 104.7C43.0993 104.7 36.8993 96.9 35.4993 95.4C34.0993 93.9 33.9993 87.4 33.6993 84.6C33.3993 81.8 32.4993 77 35.4993 74.5L42.5 72.5L50.5993 40.5L64.9993 31L82.4994 27L113.999 40.5Z" stroke="black"/>
<path d="M43.5 104.5C43.5 104.5 44.5 106.2 44.5 108C44.5 109.8 45.8 113.5 46.9 114C48 114.5 47.5 115.8 48.5 115.5C48.5 115.5 51.2 106.3 50.3 103.3C48 106 44.5 104.8 43.5 104.5Z" fill="black"/>
<path d="M66.8008 7.8C66.5008 7.6 66.1008 7.5 65.8008 7.5C65.8008 7.5 66.2008 7.6 66.8008 7.8Z" fill="url(#paint0_linear)"/>
<path d="M65.3016 5.2998C64.3016 4.9998 63.4016 4.7998 62.6016 4.7998C62.6016 4.7998 63.8016 4.9998 65.3016 5.2998Z" fill="url(#paint1_linear)"/>
<path d="M75.1988 5.70039C74.7988 5.50039 74.4988 5.40039 74.1988 5.40039C74.0988 5.40039 74.4988 5.60039 75.1988 5.70039Z" fill="url(#paint2_linear)"/>
<path d="M64.5 4.40039C64.2 4.40039 64 4.50039 64 4.50039C64.1 4.50039 64.3 4.40039 64.5 4.40039Z" fill="url(#paint3_linear)"/>
<path d="M45.5992 6.40039C45.3992 6.50039 45.1992 6.50039 45.1992 6.50039C45.3992 6.40039 45.4992 6.40039 45.5992 6.40039Z" fill="url(#paint4_linear)"/>
<path d="M38.3008 79C38.3008 79.2 38.4008 79.4 38.5008 79.5C38.4008 79.4 38.4008 79.3 38.3008 79Z" fill="url(#paint5_linear)"/>
<path d="M27.4985 73.3004C27.4985 73.3004 27.4985 72.3004 27.5985 70.9004C27.4985 71.6004 27.3985 72.4004 27.4985 73.3004Z" fill="url(#paint6_linear)"/>
<path d="M124.801 54.2002L124.901 54.8002L124.801 54.2002Z" fill="url(#paint7_linear)"/>
<path d="M87.3984 8.2002C87.3984 8.2002 87.4984 8.3002 87.6984 8.4002L87.3984 8.2002Z" fill="url(#paint8_linear)"/>
<path d="M111.301 5.0998L111.401 4.7998L111.301 5.0998Z" fill="url(#paint9_linear)"/>
<path d="M126.392 45.7C125.192 45.6 125.5 43.5 125.5 43.5C131.7 40.3 127.5 36.5 127.5 36.5C123.5 42.9 125.1 39.4 124 39.5C123 39.6 121 37.8333 124.8 37.8333C128.6 37.8333 123.1 35.4 123.1 35.4C121.8 36.3 122 36 122 36C123.3 35.6 122.8 33.3 122.8 33.3C121.6 34.3 121.1 34.5486 121.1 34.5486C121.8 34.0486 121.1 30.6 121.1 30.6C120.5 32.5 120 32.5 120 32.5C121 32 122.7 27.1 122.7 27.1C121.7 28.4 119.4 29.1 119.4 29.1C122.9 26 124.9 21.6 125.7 19.5C123.5 25.2 117.8 29.5 117.8 29.5C117.8 29.5 117.9 29.7159 118.4 29.0159L118.8 24.5C118.2 26.1 116.9 25.5 116.9 25.5C117.2 23.5 115.3 18.1 115.3 18.1C115.8 18 119 18.8 119 18.8C118.2 18.3 115.1 17.4 115.1 17.4C115.1 15.9 113.3 12.1 113.3 12.1C114 13.6 113.9 14.9 113.8 15.6C113.7 16.3 114.3 17.5 114.1 17.4C113.9 17.3 111.9 17.5 111.9 17.5C111.6 12.5 110.3 10.8 110.3 10.8C111.7 13.6 111.5 17.7 111.5 17.7L110.7 17.9V15.7C110.5 13.5 109.6 11 109.4 10.6C109.6 11.1 109.5 14.5 109.5 14.1C109.5 13.6 108.8 11.9 108.8 11.9L110.4 3.9C109.9 5.8 107.2 13.9 106.8 12.5C106.5 11.4 105.7 10.6 105.3 10.2C105.8 10.8 106.4 12.1 106.6 12.8C106.8 13.7 105.7 14.2 105.7 14.2C103.2 9.5 101 7.3 100.1 6.5C101.9 8.2 103.8 13 103.8 13C103.4 12.3 101.6 10.8 100.1 9.5C101.3 10.9 102.2 12.6 102.2 12.6C102 12.4 100.9 12.5 100.9 12.5C102.9 12.7 102.8 15.3 102.6 14.9C102.4 14.5 101.5 13.7 99.8 13C98.1 12.3 94.3 10.6 94.3 10.6C95.3 9.1 97.9 10.8 97.9 10.8C95.5 8.9 93.7 10.8 93 10.2L88.2 8.5C88 8.2 87.1 7.4 86.6 7C87.3 7.8 87.7 8.8 87.7 8.8C87.7 8.8 87.8 9.3 86.6 8.6C85.5 8 83.1 7.4 83.1 7.4C84.6 8.1 83.7 8.3 83.7 8.3C81.8 6.8 76.5 5.2 74.3 4.5C75.2 4.9 76.2 5.6 76.2 5.6C75.6 5.4 72.7 4.9 72.7 4.9C69.1 3 65.5 3 63.9 3.2C67.6 3 72.8 5.3 71.8 5.3C71.1 5.3 67.2 4.6 64.4 4.1C66.5 4.7 68.7 5.5 68.7 5.5C67.7 5.4 65.1 6.1 65.1 6.1C66.8 5.7 69.3 6.4 69.7 6.9C70.1 7.4 69.6 9 69.6 9C68.6 7.9 67 7.1 65.9 6.7C67.7 7.5 69.6 9.5 69.6 9.6C69.5 9.7 67.9 9.4 67.9 9.4C58.7 4.3 50.7 4.2 50.7 4.2C48.3 0.0999999 46 0 46 0C49.2 0.6 49.8 4.2 49.8 4.2C47.9 4.1 45.8 4.8 44.9 5.1C46.9 4.4 49.6 4.3 50 4.5C50.4 4.7 50.7 7.1 50.7 7.1C50.6 7.7 50.7 10.8 50.7 10.8C46.2 7.9 42.7 11.3 42.7 11.3C47.7 7.4 51 12.1 51 12.1C45.9 11.9 41.4 18.6 41.4 18.6C47 11.5 49.7 12.9 49.7 12.9C47.7 14.1 46.1 17.7 46.1 17.7C45.6 17.8 43.2 20.5 43.2 20.5C43.9 19.7 45.5 19.4 45.5 19.4L42.5 21C41.5 21.3 37.1 25.2 36.5 26C35.8 26.8 31.3301 33.2157 31.3301 33.2157C33.2301 31.6157 39.2 26.8 39.2 26.8C39.2 26.8 38.5 27.2 35 29C31.5 30.8 27.4 36 27.4 36C24.1 38.3 27.1 43.2 25.7 43.1L20.5 44.3C23.3 43.5 25.8 43.9 25.8 43.9L24.5 45.7C21.6 46.5 22.5 47.6 22.5 47.6C23.6 49.3 23.6 53 23.6 53C22.2 53.9 23.6 55.3 23.6 55.3C24.1 53.5 24.5 57.9 24.5 57.9C21.5 62.2 24.5 64.6 24.5 64.6C23.7 66.4 26 71.6 25.8 73.5C26.2 71.3 25.8 72.9448 25.8 72.9448V73.5C26.2 75.5 27.4 74.1 27.4 74.1L26.6 77.8C26.4 78.2 27.9 81.2 28.6 80.8C29.3 80.4 29.6 84.6 29.3 85.5L32.1 88.4C37 96.5 32.6 81.9 32.6 81.9C32.5 74.2 37 74.4 37 74.4C36.7 75.8 37.1 77.1 37.4 77.8C37.2 76.8 37.6 74.5 37.6 74.5C38.1 74.6 40 75.9 40 75.9C40.3 77.8 42.5 81.6 42.5 81.6C42.5 81.6 41.9 71.4 43.1 76.5L49.7 95C49.7 95 52.1 89.3 51.8 86.5C51.5 83.7 50.7 79.3 51.8 75.9C53.4 96.5 55 64.4 55 64.4C55 64.4 62 63.5 61.5 61.5C61 59.5 61 55.25 61 55.25L60.5 49L67.9 44.3L76 42.9L89 42L99.8 46.5L105.7 53C105.7 53 113.6 58.8 115.5 63.5C117.4 68.3 117.8 65 117.8 65C118 66.4 116.8 67 117.8 69.5C118.8 72 120 72.5 120 72.5C120 70 121.4 72 121.4 72C124.5 72 123.5 74.5 123.5 74.5C120 82.5 128.2 67.5 128.2 67.5C128.8 68 129.6 61.5 129.6 61.5C129.6 60.3 130.5 63.1 130 60.5C131 60.6 132.5 61.4 132.5 61.4C132 59.2 129.6 59.5 129.6 59.5C130.6 59.7 129.6 58.2653 129.6 58.2653C128.7 56.0653 129.6 57 129.6 57C129.5 56.4 129.251 56.8132 129.251 56.8132C130.851 57.8132 128.9 55.4 129 56C128.6 54.2 129.6 56.5 129.6 56.5C130.9 56.7 129 54.0084 129 54.0084C130.2 54.5084 129.6 54.5 129.6 54.5C129.4 52.7 129 51.3 129 51.3C130.1 51.3 129 49.7 129 49.7C128.6 48.9 128 47.5 128 47.5C131.4 46 128.2 42.9 128.2 42.9C126.8 45.3 127.592 45.9 126.392 45.7ZM59.7 9.7C59.7 9.7 54.2 5.9 53.1 5.7C53.1 5.7 56.8 7.3 57.1 10.4C57.1 10.4 54.2 9.5 53.1 10.4L51 4.9C51 4.9 59.1 6 60.9 9.7C60.7 9.3 59.7 9.7 59.7 9.7Z" fill="black"/>
<path d="M126.5 20.6C126.8 19.9 126.9 19.5 126.9 19.5C126.7 19.9 126.6 20.2 126.5 20.6Z" fill="url(#paint10_linear)"/>
<path d="M106.5 132.5L105 127.5H98.5L95 131L89.5 134.5L82.5 135.5L76.5 134.5L85.5 142.5L91.5 146.5H100L105.5 142.5L108.5 138.5V134.5L106.5 132.5Z" fill="black" stroke="black"/>
<path d="M126.398 20.6997C126.498 20.6997 126.498 20.5997 126.398 20.6997C126.498 20.5997 126.498 20.6997 126.398 20.6997Z" fill="url(#paint11_linear)"/>
<path d="M98.6016 8.90039C98.6016 8.90039 99.7016 9.80039 101.002 10.8004C100.302 10.0004 99.5016 9.30039 98.6016 8.90039Z" fill="url(#paint12_linear)"/>
<path d="M100.898 7.59961C100.898 7.59961 100.998 7.69961 101.098 7.69961C100.998 7.69961 100.998 7.69961 100.898 7.59961Z" fill="url(#paint13_linear)"/>
<path d="M100.899 7.60039C100.699 7.50039 100.699 7.40039 100.699 7.40039C100.799 7.50039 100.799 7.60039 100.899 7.60039Z" fill="url(#paint14_linear)"/>
<path d="M106.302 11.4002L106.102 11.2002C106.102 11.3002 106.202 11.4002 106.302 11.4002Z" fill="url(#paint15_linear)"/>
</g>
<defs>
<linearGradient id="paint0_linear" x1="65.9174" y1="7.7993" x2="66.5594" y2="7.5493" gradientUnits="userSpaceOnUse">
<stop stop-color="#4663FF"/>
<stop offset="1" stop-color="#17A8D3"/>
</linearGradient>
<linearGradient id="paint1_linear" x1="62.9687" y1="5.4318" x2="64.8057" y2="4.7178" gradientUnits="userSpaceOnUse">
<stop stop-color="#4663FF"/>
<stop offset="1" stop-color="#17A8D3"/>
</linearGradient>
<linearGradient id="paint2_linear" x1="74.2742" y1="5.71439" x2="74.9492" y2="5.45139" gradientUnits="userSpaceOnUse">
<stop stop-color="#4663FF"/>
<stop offset="1" stop-color="#17A8D3"/>
</linearGradient>
<linearGradient id="paint3_linear" x1="64.0123" y1="4.54159" x2="64.4123" y2="4.38659" gradientUnits="userSpaceOnUse">
<stop stop-color="#4663FF"/>
<stop offset="1" stop-color="#17A8D3"/>
</linearGradient>
<linearGradient id="paint4_linear" x1="45.2802" y1="6.49539" x2="45.5812" y2="6.37839" gradientUnits="userSpaceOnUse">
<stop stop-color="#4663FF"/>
<stop offset="1" stop-color="#17A8D3"/>
</linearGradient>
<linearGradient id="paint5_linear" x1="38.3433" y1="79.2738" x2="38.3723" y2="79.2618" gradientUnits="userSpaceOnUse">
<stop stop-color="#4663FF"/>
<stop offset="1" stop-color="#17A8D3"/>
</linearGradient>
<linearGradient id="paint6_linear" x1="27.1162" y1="72.2681" x2="27.9102" y2="71.9601" gradientUnits="userSpaceOnUse">
<stop stop-color="#4663FF"/>
<stop offset="1" stop-color="#17A8D3"/>
</linearGradient>
<linearGradient id="paint7_linear" x1="124.745" y1="54.542" x2="124.864" y2="54.495" gradientUnits="userSpaceOnUse">
<stop stop-color="#4663FF"/>
<stop offset="1" stop-color="#17A8D3"/>
</linearGradient>
<linearGradient id="paint8_linear" x1="87.4851" y1="8.3244" x2="87.6261" y2="8.2704" gradientUnits="userSpaceOnUse">
<stop stop-color="#4663FF"/>
<stop offset="1" stop-color="#17A8D3"/>
</linearGradient>
<linearGradient id="paint9_linear" x1="111.278" y1="4.9782" x2="111.411" y2="4.92621" gradientUnits="userSpaceOnUse">
<stop stop-color="#4663FF"/>
<stop offset="1" stop-color="#17A8D3"/>
</linearGradient>
<linearGradient id="paint10_linear" x1="126.349" y1="20.187" x2="126.944" y2="19.955" gradientUnits="userSpaceOnUse">
<stop stop-color="#4663FF"/>
<stop offset="1" stop-color="#17A8D3"/>
</linearGradient>
<linearGradient id="paint11_linear" x1="126.436" y1="20.6795" x2="126.492" y2="20.6575" gradientUnits="userSpaceOnUse">
<stop stop-color="#4663FF"/>
<stop offset="1" stop-color="#17A8D3"/>
</linearGradient>
<linearGradient id="paint12_linear" x1="99.1523" y1="10.1027" x2="100.413" y2="9.61269" gradientUnits="userSpaceOnUse">
<stop stop-color="#4663FF"/>
<stop offset="1" stop-color="#17A8D3"/>
</linearGradient>
<linearGradient id="paint13_linear" x1="100.938" y1="7.67351" x2="101.022" y2="7.64051" gradientUnits="userSpaceOnUse">
<stop stop-color="#4663FF"/>
<stop offset="1" stop-color="#17A8D3"/>
</linearGradient>
<linearGradient id="paint14_linear" x1="100.719" y1="7.53159" x2="100.843" y2="7.48359" gradientUnits="userSpaceOnUse">
<stop stop-color="#4663FF"/>
<stop offset="1" stop-color="#17A8D3"/>
</linearGradient>
<linearGradient id="paint15_linear" x1="106.102" y1="11.3391" x2="106.215" y2="11.2951" gradientUnits="userSpaceOnUse">
<stop stop-color="#4663FF"/>
<stop offset="1" stop-color="#17A8D3"/>
</linearGradient>
<clipPath id="clip0">
<rect width="142" height="164" fill="white"/>
</clipPath>
</defs>
</svg>
