<svg width="749" height="1057" viewBox="0 0 749 1057" fill="none" xmlns="http://www.w3.org/2000/svg">
<rect x="268" y="298" width="213" height="759" rx="106.5" fill="#D6274D"/>
<rect x="536" width="213" height="759" rx="106.5" fill="#E83E03"/>
<rect y="140" width="213" height="759" rx="106.5" fill="#052FD3"/>
<path d="M393 939H520V1057L435 1015L393 939Z" fill="#77E0B5"/>
<path d="M267.691 241.539L240.205 365.529L125.001 339.99L184.403 266.095L267.691 241.539Z" fill="#FCDC3D"/>
<path d="M602.625 267.354L476.999 248.725L494.307 132.001L572.227 186.015L602.625 267.354Z" fill="#CCDEE2"/>
<path d="M560.113 365.924L544.051 491.904L426.998 476.98L504.807 444.313L560.113 365.924Z" fill="#FCC8DF"/>
<path d="M560.113 365.924L544.051 491.904L426.998 476.98L504.807 444.313L560.113 365.924Z" fill="#FCC8DF"/>
<path d="M560.113 365.924L544.051 491.904L426.998 476.98L504.807 444.313L560.113 365.924Z" fill="#FCC8DF"/>
<path d="M560.113 365.924L544.051 491.904L426.998 476.98L504.807 444.313L560.113 365.924Z" fill="#FCC8DF"/>
<path d="M560.113 365.924L544.051 491.904L426.998 476.98L504.807 444.313L560.113 365.924Z" fill="#FCC8DF"/>
</svg>
