<svg width="42" height="42" viewBox="0 0 42 42" fill="none" xmlns="http://www.w3.org/2000/svg">
<path d="M8 24C9.65686 24 11 22.6569 11 21C11 19.3431 9.65686 18 8 18C6.34314 18 5 19.3431 5 21C5 22.6569 6.34314 24 8 24Z" fill="#E83E03"/>
<path d="M35.3886 18H14.6114C13.7215 18 13 19.2626 13 20.82V21.18C13 22.7374 13.7215 24 14.6114 24H35.3886C36.2785 24 37 22.7374 37 21.18V20.82C37 19.2626 36.2785 18 35.3886 18Z" fill="#052FD3"/>
<path d="M35.3289 29H6.67111C5.74818 29 5 30.2626 5 31.82V32.18C5 33.7374 5.74818 35 6.67111 35H35.3289C36.2518 35 37 33.7374 37 32.18V31.82C37 30.2626 36.2518 29 35.3289 29Z" fill="#FCDC3D"/>
<path d="M35.3289 8H6.67111C5.74818 8 5 9.05214 5 10.35V10.65C5 11.9479 5.74818 13 6.67111 13H35.3289C36.2518 13 37 11.9479 37 10.65V10.35C37 9.05214 36.2518 8 35.3289 8Z" fill="#D6274D"/>
</svg>
