<svg width="157" height="186" viewBox="0 0 157 186" fill="none" xmlns="http://www.w3.org/2000/svg">
<g clip-path="url(#clip0)">
<path d="M54.2857 147H33.6154H10.7692L9.38462 145.028L8 55.8111L9.03846 54.3323L45.9421 44.512L55.3211 42C55.3211 42 69.5645 42.7635 78.5 44.512C82.6356 45.3212 89 47 89 47V147H54.2857Z" fill="#CCDEE2"/>
<path d="M121.498 55.5L89.4982 47.5V51.5L117.5 57.5L119.998 60L124 86V113L121.498 138.5L119 142C109.166 142 89.3982 142.1 88.9982 142.5C88.5982 142.9 88.8315 145.333 88.9982 146.5L119.998 147.5L121.498 144C121.498 144 122.996 144 125.498 130C128 116 126.755 112.033 126.998 100.5C127.171 92.3008 126.998 79.5 126.998 79.5C126.998 79.5 127.749 69.066 125.498 63C124.343 59.8879 121.498 55.5 121.498 55.5Z" fill="#CCDEE2"/>
<path opacity="0.55" d="M175.457 198.604L91.0009 147C91.0009 147 99.3583 148.026 105.999 148C111.86 147.977 120.999 147.501 120.999 147.501L183.239 177.672L175.457 198.604Z" fill="#FCDC3D"/>
<path opacity="0.55" d="M172.324 -87L91 47.6713L121.5 55.5L200 -36.0173V-87H172.324Z" fill="#77E0B5"/>
<path opacity="0.55" d="M210 26L127 77.5C127 77.5 127.513 84.0321 127.5 88C127.488 91.7151 127 97.5 127 97.5L210 77.8519V26Z" fill="#FCC8DF"/>
<path d="M66.3648 48.0077C61.4786 48.2875 61.0344 50.2466 61.0344 55.8438V133.086C61.0344 133.086 60.035 139.616 68.8079 140.642C77.5809 141.668 111.896 142.881 111.896 142.881C111.896 142.881 118.336 143.814 120.002 140.456C121.668 137.097 123.889 112.563 124 97.8232C124 88.375 123.112 71.9825 122.001 65.0793C120.891 58.176 115.227 57.2431 110.23 56.217C105.344 55.1908 71.2511 47.7278 66.3648 48.0077Z" fill="white"/>
</g>
<defs>
<clipPath id="clip0">
<rect width="157" height="186" fill="white"/>
</clipPath>
</defs>
</svg>
